<svg xmlns="http://www.w3.org/2000/svg" xmlns:xlink="http://www.w3.org/1999/xlink" width="65" height="24" viewBox="0 0 65 24">
  <defs>
    <polygon id="ghn-a" points="0 0 60.842 0 60.842 19.504 0 19.504"/>
  </defs>
  <g fill="none" fill-rule="evenodd" transform="translate(2 2)">
    <mask id="ghn-b" fill="#fff">
      <use xlink:href="#ghn-a"/>
    </mask>
    <path fill="#185638" d="M52.7581519,11.5757143 C53.6944443,8.10828571 54.5835481,4.82428571 55.4674726,1.53857143 C55.7937651,0.324857143 56.1862368,0.0185714286 57.4655104,0.0162857143 C58.409284,0.0151428571 59.353633,0.0328571429 60.2968311,0.00942857143 C60.7531802,-0.002 60.9448123,0.0231428571 60.7877085,0.592857143 C59.4600953,5.414 58.1693123,10.2448571 56.8681708,15.0734286 C56.517133,16.3745714 56.1448028,17.6705714 55.8300198,18.9802857 C55.7270104,19.4094286 55.5382557,19.5048571 55.1279443,19.498 C53.7243689,19.4728571 52.319067,19.4665714 50.916067,19.4985714 C50.4556896,19.5094286 50.2934066,19.3431429 50.1679538,18.9265714 C49.1033311,15.3837143 48.0139632,11.8477143 46.9315009,8.30942857 C46.9084821,8.23342857 46.8820104,8.158 46.7899349,7.87685714 C46.5211896,8.85057143 46.3019349,9.62942857 46.0913123,10.4105714 C45.3961425,12.9905714 44.7055764,15.5711429 44.0086802,18.1505714 C43.7537462,19.0951429 43.2553877,19.4825714 42.2776613,19.4842857 C39.2167274,19.4894286 36.1546425,19.4911429 33.093133,19.4854286 C31.7476802,19.4825714 31.0956708,18.6077143 31.447284,17.3031429 C31.9208972,15.5391429 32.3830009,13.7711429 32.8779066,12.0128571 C32.9855198,11.6305714 32.910133,11.5477143 32.5251425,11.5505714 C30.5225009,11.5654286 28.5198594,11.57 26.5172179,11.5477143 C26.1051802,11.5431429 25.97685,11.6934286 25.8790198,12.066 C25.2834066,14.342 24.6440575,16.6065714 24.05535,18.8842857 C23.9385292,19.3357143 23.7883311,19.5191429 23.2870953,19.5025714 C22.022784,19.4608571 20.7555953,19.4705714 19.4895575,19.4962857 C18.9975292,19.5065714 18.8128028,19.4791429 18.9779632,18.8808571 C20.2848594,14.1477143 21.5422651,9.40142857 22.8382274,4.66485714 C22.9941802,4.09457143 22.9757651,3.89114286 22.275416,3.89685714 C18.2476896,3.93171429 14.2188123,3.91285714 10.1905104,3.91457143 C8.68795377,3.91514286 8.09349151,4.34714286 7.70735,5.76314286 C6.93851981,8.58314286 6.18004811,11.4065714 5.42848208,14.2311429 C5.12060472,15.3888571 5.44919906,15.7962857 6.66804811,15.7991429 C8.48596321,15.8031429 10.3050292,15.7848571 12.1235198,15.8094286 C12.5597274,15.8145714 12.7738028,15.7185714 12.8808406,15.2625714 C13.1317462,14.1962857 13.4321425,13.1402857 13.7446236,12.0894286 C13.8735292,11.6562857 13.7733972,11.534 13.3176236,11.5482857 C12.3283877,11.5785714 11.33685,11.5328571 10.3493406,11.5688571 C9.83774623,11.5877143 9.7853783,11.4191429 9.92176509,10.9871429 C10.1358406,10.3128571 10.2929443,9.62085714 10.4868783,8.93971429 C10.7354821,8.06542857 11.2298123,7.67057143 12.1269726,7.66657143 C14.4052651,7.65685714 16.684133,7.67285714 18.9630009,7.65457143 C19.4049632,7.65057143 19.5223594,7.73742857 19.3917274,8.18885714 C18.342067,11.8082857 17.3067934,15.4328571 16.2870575,19.0608571 C16.1955575,19.3871429 16.0724066,19.4945714 15.7317274,19.4934286 C11.7264443,19.4785714 7.72116132,19.4791429 3.7158783,19.474 C3.60135943,19.474 3.48626509,19.466 3.37174623,19.4557143 C0.734359434,19.2231429 -0.46319717,17.7185714 0.163491509,15.1591429 C1.01634057,11.678 1.93076509,8.20714286 2.97064245,4.778 C3.96851038,1.49 6.08739717,0.0317142857 9.54598208,0.022 C15.3467368,0.00542857143 21.1474915,0.0145714286 26.9482462,0.018 C28.2367274,0.0185714286 28.8881613,0.850571429 28.5647462,2.08828571 C28.1250858,3.76714286 27.675067,5.44371429 27.2095104,7.11514286 C27.0984443,7.51342857 27.1145575,7.67914286 27.6106142,7.67285714 C29.5666425,7.64714286 31.5238217,7.64714286 33.47985,7.67457143 C33.9385009,7.68142857 34.1030858,7.53285714 34.2141519,7.10142857 C34.780416,4.91285714 35.3973217,2.73742857 35.9635858,0.548857143 C36.0688972,0.143142857 36.2093123,-0.006 36.6472462,0.00485714286 C37.9581708,0.0368571429 39.2713972,0.0305714286 40.5834726,0.00771428571 C41.0369443,0.000285714286 41.1600953,0.0654285714 41.023133,0.564857143 C39.7185387,5.32257143 38.4553783,10.0911429 37.1479066,14.8477143 C36.9758406,15.4751429 37.0966896,15.5997143 37.7325858,15.5877143 C39.6535104,15.5534286 39.6483311,15.578 40.1380575,13.7585714 C41.3195009,9.37 42.5159066,4.98485714 43.6772085,0.591142857 C43.8032368,0.111714286 43.9965953,-0.00771428571 44.4690575,0.00428571429 C45.8260198,0.0385714286 47.1858594,0.046 48.5428217,0.000857142857 C49.0665009,-0.0162857143 49.2495009,0.182 49.3876142,0.640285714 C50.4148311,4.07628571 51.465067,7.50542857 52.5101236,10.9357143 C52.5601896,11.1008571 52.6344255,11.2585714 52.7581519,11.5757143" mask="url(#ghn-b)"/>
  </g>
</svg>
