<svg xmlns="http://www.w3.org/2000/svg" xmlns:xlink="http://www.w3.org/1999/xlink" width="42" height="24" viewBox="0 0 42 24">
  <defs>
    <polygon id="vietnam-post-a" points=".552 0 12.609 0 12.609 1.789 .552 1.789"/>
    <polygon id="vietnam-post-c" points=".012 .165 2.764 .165 2.764 2.667 .012 2.667"/>
    <polygon id="vietnam-post-e" points="0 .166 2.993 .166 2.993 2.66 0 2.66"/>
    <polygon id="vietnam-post-g" points=".124 .166 2.817 .166 2.817 2.66 .124 2.66"/>
  </defs>
  <g fill="none" fill-rule="evenodd" transform="translate(2 2)">
    <path fill="#F6A71B" d="M9.9936,8.22473333 L9.0756,8.22473333 C8.5196,8.22473333 7.96426667,8.22473333 7.40826667,8.22473333 C7.24226667,8.22473333 7.14226667,8.33073333 7.15826667,8.48606667 C7.16693333,8.5654 7.21226667,8.61873333 7.2756,8.6634 C8.5756,9.5834 9.87426667,10.5040667 11.1742667,11.4247333 C11.6042667,11.7294 12.0342667,12.0340667 12.4636,12.3387333 C12.6182667,12.4480667 12.7882667,12.3760667 12.8182667,12.1894 C12.8222667,12.1647333 12.8229333,12.1387333 12.8229333,12.1134 L12.8229333,8.49873333 C12.8229333,8.3114 12.7342667,8.22473333 12.5449333,8.22473333 L9.9936,8.22473333 Z M25.9962667,9.84006667 C25.9589333,9.9094 25.9029333,9.9614 25.8542667,10.0187333 C24.6322667,11.4687333 23.4102667,12.9187333 22.1856,14.3660667 C21.8369333,14.7787333 21.3876,14.9907333 20.8442667,14.9907333 C18.1029333,14.9920667 15.3609333,14.9900667 12.6189333,14.9927333 C12.3029333,14.9934 12.0216,14.9027333 11.7682667,14.7220667 C10.3909333,13.7387333 9.01493333,12.7540667 7.63893333,11.7700667 C6.33893333,10.8407333 5.04293333,9.90406667 3.73493333,8.9854 C3.36026667,8.7214 3.30826667,8.1054 3.73693333,7.8354 C3.89293333,7.73673333 4.03826667,7.6234 4.18893333,7.51673333 C5.75026667,6.41206667 7.31226667,5.3074 8.87293333,4.20206667 C9.11293333,4.03273333 9.3596,4.03406667 9.59826667,4.20273333 C11.3102667,5.41473333 13.0209333,6.6274 14.7329333,7.8374 C14.9376,7.98206667 15.0356,8.17473333 15.0349333,8.42273333 C15.0349333,8.85673333 15.0376,9.29073333 15.0329333,9.72473333 C15.0316,9.8134 15.0589333,9.83006667 15.1416,9.8294 C18.7256,9.8274 22.3096,9.82806667 25.8936,9.82873333 C25.9262667,9.82873333 25.9609333,9.81873333 25.9962667,9.84006667 Z"/>
    <g transform="translate(21.333)">
      <mask id="vietnam-post-b" fill="#fff">
        <use xlink:href="#vietnam-post-a"/>
      </mask>
      <path fill="#F6A81C" d="M0.5522,1.7872 C0.730866667,1.5752 0.894866667,1.38053333 1.05886667,1.18586667 C1.2702,0.934533333 1.4842,0.684533333 1.6942,0.431866667 C1.93353333,0.1432 2.23486667,0.0012 2.61353333,0.00186666667 C5.8342,0.00453333333 9.05486667,0.0052 12.2755333,-0.000133333333 C12.5048667,-0.000133333333 12.6675333,0.219866667 12.5895333,0.427866667 C12.5715333,0.473866667 12.5408667,0.5112 12.5102,0.548533333 C12.1775333,0.942533333 11.8442,1.33586667 11.5128667,1.73186667 C11.4795333,1.77186667 11.4448667,1.78853333 11.3915333,1.78853333 C7.80753333,1.7872 4.2242,1.7872 0.640866667,1.7872 L0.5522,1.7872 Z" mask="url(#vietnam-post-b)"/>
    </g>
    <path fill="#F6A71B" d="M15.784,9.01706667 C15.9233333,8.85106667 16.0606667,8.6864 16.1993333,8.5224 C16.4953333,8.17173333 16.7933333,7.8224 17.088,7.46973333 C17.1226667,7.4284 17.1593333,7.4084 17.2106667,7.41173333 C17.236,7.41306667 17.262,7.41173333 17.2873333,7.41173333 L27.938,7.41173333 L28.0306667,7.41173333 C28.0313333,7.45573333 28.0006667,7.47306667 27.9826667,7.4944 C27.5706667,7.98506667 27.1566667,8.4744 26.7446667,8.9644 C26.7073333,9.00973333 26.668,9.03573333 26.608,9.03106667 C26.5693333,9.02773333 26.5286667,9.03173333 26.4893333,9.03173333 C22.956,9.03173333 19.4226667,9.03173333 15.8893333,9.03173333 C15.8566667,9.03173333 15.822,9.0424 15.784,9.01706667"/>
    <path fill="#F6A81C" d="M17.8224 6.601C17.9997333 6.39033333 18.1724 6.185 18.3457333 5.97966667 18.6057333 5.67166667 18.8657333 5.365 19.1237333 5.05633333 19.1564 5.01766667 19.1884 5.00233333 19.2384 5.00233333 22.8277333 5.003 26.4170667 5.003 30.0057333 5.003L30.0850667 5.003C29.9964 5.10833333 29.9190667 5.19966667 29.8410667 5.29166667 29.4884 5.71033333 29.1357333 6.12766667 28.7844 6.547 28.7424 6.597 28.6990667 6.61766667 28.6330667 6.61766667 25.0604 6.61566667 21.4890667 6.61566667 17.9170667 6.61566667 17.8897333 6.61566667 17.8604 6.623 17.8224 6.601M19.8458667 4.20353333C19.9698667 4.05686667 20.0798667 3.92553333 20.1905333 3.7942 20.5145333 3.41086667 20.8385333 3.02753333 21.1605333 2.64286667 21.1945333 2.6022 21.2292 2.58553333 21.2825333 2.58553333 24.8638667 2.58686667 28.4458667 2.58686667 32.0272 2.58686667 32.0525333 2.58686667 32.0765333 2.58953333 32.1152 2.59153333 32.0738667 2.64286667 32.0412 2.6842 32.0072 2.7242 31.6072 3.19886667 31.2058667 3.67286667 30.8058667 4.1482 30.7752 4.18553333 30.7438667 4.20486667 30.6925333 4.2042 27.0965333 4.20353333 23.4998667 4.20353333 19.9045333 4.20353333L19.8458667 4.20353333z"/>
    <path fill="#20396E" d="M29.1863333 19.5202667C29.461 19.5202667 29.7363333 19.5189333 30.011 19.5216 30.0663333 19.5216 30.0816667 19.5069333 30.081 19.4516 30.079 18.9756 30.079 18.4996 30.081 18.0236 30.081 17.9716 30.0716667 17.9509333 30.0123333 17.9516 29.4656667 17.9536 28.9196667 17.9536 28.3723333 17.9516 28.3136667 17.9516 28.2956667 17.9656 28.2963333 18.0262667 28.299 18.4996 28.2983333 18.9722667 28.2963333 19.4456 28.2956667 19.5042667 28.3103333 19.5222667 28.3703333 19.5216 28.643 19.5182667 28.915 19.5202667 29.1863333 19.5202667M29.1863333 19.9916C28.889 19.9916 28.591 19.9922667 28.2936667 19.9909333 28.2283333 19.9902667 28.163 19.9856 28.099 19.9756 27.903 19.9429333 27.7963333 19.8316 27.767 19.6316 27.7556667 19.5562667 27.7496667 19.4802667 27.7503333 19.4036 27.751 18.9582667 27.7496667 18.5129333 27.7516667 18.0676 27.7516667 17.9942667 27.757 17.9202667 27.7696667 17.8482667 27.8023333 17.6536 27.9096667 17.5476 28.1036667 17.5169333 28.1683333 17.5062667 28.2336667 17.5016 28.2983333 17.5016 28.8916667 17.5002667 29.4836667 17.5002667 30.0763333 17.5016 30.1443333 17.5016 30.2123333 17.5062667 30.2796667 17.5176 30.495 17.5536 30.6003333 17.6822667 30.621 17.9282667 30.6243333 17.9596 30.6243333 17.9909333 30.6243333 18.0216L30.6243333 19.4676C30.6243333 19.5276 30.6196667 19.5862667 30.6083333 19.6449333 30.5703333 19.8482667 30.4616667 19.9542667 30.257 19.9782667 30.1876667 19.9862667 30.117 19.9909333 30.0456667 19.9909333 29.759 19.9922667 29.473 19.9916 29.1863333 19.9916M32.937 19.9968667C32.637 19.9855333 32.3363333 20.0115333 32.0356667 19.9802 31.7956667 19.9548667 31.679 19.8375333 31.6476667 19.5948667 31.6123333 19.3162 31.6123333 19.3162 31.8896667 19.3162L31.941 19.3162C31.9976667 19.3168667 32.0656667 19.2988667 32.107 19.3248667 32.147 19.3508667 32.1196667 19.4248667 32.1196667 19.4768667 32.1203333 19.5282 32.151 19.5202 32.1816667 19.5202L32.649 19.5202C32.9896667 19.5202 33.3303333 19.5168667 33.6703333 19.5228667 33.7563333 19.5242 33.7736667 19.4975333 33.769 19.4188667 33.7616667 19.2948667 33.763 19.1695333 33.769 19.0448667 33.7716667 18.9762 33.755 18.9548667 33.6816667 18.9555333 33.2143333 18.9588667 32.7463333 18.9568667 32.2783333 18.9568667 31.8863333 18.9568667 31.7496667 18.8268667 31.7356667 18.4382 31.729 18.2542 31.7256667 18.0702 31.747 17.8862 31.775 17.6555333 31.8936667 17.5368667 32.125 17.5122 32.3676667 17.4875333 32.6123333 17.5008667 32.8556667 17.5022 33.1756667 17.5028667 33.4963333 17.4848667 33.8163333 17.5128667 34.065 17.5342 34.193 17.6662 34.213 17.9162 34.2283333 18.1128667 34.2283333 18.1128667 34.0316667 18.1128667 33.9543333 18.1128667 33.8776667 18.1088667 33.8016667 18.1142 33.7443333 18.1182 33.7236667 18.0975333 33.733 18.0428667 33.7483333 17.9595333 33.7123333 17.9402 33.631 17.9408667 33.1856667 17.9448667 32.741 17.9442 32.2956667 17.9415333 32.2283333 17.9408667 32.207 17.9602 32.2103333 18.0268667 32.215 18.1488667 32.215 18.2708667 32.2103333 18.3928667 32.2076667 18.4522 32.2256667 18.4688667 32.285 18.4688667 32.7443333 18.4662 33.2036667 18.4662 33.6636667 18.4682 33.7423333 18.4682 33.8223333 18.4735333 33.9003333 18.4855333 34.1116667 18.5182 34.219 18.6328667 34.239 18.8875333 34.259 19.1355333 34.2656667 19.3862 34.2303333 19.6348667 34.201 19.8442 34.0836667 19.9555333 33.871 19.9788667 33.561 20.0122 33.2483333 19.9855333 32.937 19.9968667"/>
    <path fill="#21396E" d="M20.1974,18.9968667 C20.5427333,18.5135333 20.8820667,18.0395333 21.2194,17.5635333 C21.2534,17.5168667 21.2874,17.4968667 21.3447333,17.4995333 C21.4434,17.5042 21.5434,17.5022 21.6427333,17.4995333 C21.6874,17.4988667 21.7074,17.5088667 21.7074,17.5602 C21.7060667,18.3515333 21.7060667,19.1422 21.7074,19.9335333 C21.7074,19.9862 21.6840667,19.9928667 21.6407333,19.9922 C21.5167333,19.9902 21.3914,19.9888667 21.2667333,19.9928667 C21.2107333,19.9948667 21.1960667,19.9775333 21.1960667,19.9215333 C21.2000667,19.3828667 21.2007333,18.8442 21.2027333,18.3055333 C21.2027333,18.2975333 21.2007333,18.2895333 21.1974,18.2635333 C21.1567333,18.3322 21.1280667,18.3915333 21.0907333,18.4448667 C20.8094,18.8462 20.5267333,19.2462 20.2440667,19.6462 C20.1954,19.7148667 20.1094,19.7108667 20.0587333,19.6382 C19.7420667,19.1868667 19.4267333,18.7355333 19.1074,18.2795333 C19.0914,18.3095333 19.1027333,18.3428667 19.1027333,18.3735333 C19.1027333,18.8895333 19.1014,19.4055333 19.1040667,19.9215333 C19.1040667,19.9795333 19.0867333,19.9948667 19.0320667,19.9928667 C18.9300667,19.9888667 18.8274,19.9895333 18.7260667,19.9922 C18.6774,19.9942 18.6554,19.9848667 18.6560667,19.9282 C18.6574,19.1402 18.6574,18.3522 18.6560667,17.5642 C18.6554,17.5088667 18.6760667,17.4975333 18.7254,17.4995333 C18.8274,17.5028667 18.9300667,17.5035333 19.0314,17.4995333 C19.0827333,17.4975333 19.1127333,17.5148667 19.1427333,17.5562 C19.4734,18.0122 19.8067333,18.4675333 20.1394,18.9222 C20.1560667,18.9448667 20.1734,18.9662 20.1974,18.9968667"/>
    <g transform="translate(11.333 17.333)">
      <mask id="vietnam-post-d" fill="#fff">
        <use xlink:href="#vietnam-post-c"/>
      </mask>
      <path fill="#21396E" d="M2.27033333,1.85166667 L2.27033333,1.51566667 C2.27033333,1.093 2.27233333,0.671 2.26833333,0.248333333 C2.26766667,0.179 2.28966667,0.163 2.355,0.165666667 C2.46766667,0.171 2.58166667,0.169 2.695,0.166333333 C2.74366667,0.165 2.765,0.175666667 2.76433333,0.231 C2.763,1.019 2.763,1.80766667 2.76433333,2.59566667 C2.76433333,2.643 2.751,2.665 2.70166667,2.65833333 C2.69366667,2.657 2.68433333,2.657 2.67633333,2.65833333 C2.469,2.695 2.31833333,2.60833333 2.16766667,2.46766667 C1.70033333,2.031 1.21833333,1.609 0.742333333,1.181 C0.663,1.10966667 0.587666667,1.03433333 0.510333333,0.961666667 L0.510333333,1.26233333 C0.510333333,1.70166667 0.509,2.14166667 0.512333333,2.58033333 C0.512333333,2.64566667 0.493666667,2.66233333 0.431,2.65966667 C0.315,2.65433333 0.199,2.65633333 0.083,2.659 C0.0343333333,2.66033333 0.0123333333,2.651 0.0123333333,2.59433333 C0.0143333333,1.80633333 0.0143333333,1.01833333 0.013,0.230333333 C0.013,0.183666667 0.025,0.164333333 0.0743333333,0.166333333 C0.162333333,0.169666667 0.250333333,0.169 0.338333333,0.166333333 C0.377666667,0.165666667 0.407,0.179 0.436333333,0.205666667 C1.00233333,0.712333333 1.56833333,1.217 2.13433333,1.723 C2.18433333,1.76766667 2.231,1.81433333 2.27033333,1.85166667" mask="url(#vietnam-post-d)"/>
    </g>
    <path fill="#223A6F" d="M5.22146667,18.7455333 C5.22146667,18.3568667 5.22346667,17.9682 5.22013333,17.5802 C5.21946667,17.5175333 5.2348,17.4988667 5.29946667,17.4988667 C6.04546667,17.5015333 6.7908,17.5008667 7.53746667,17.4995333 C7.59413333,17.4995333 7.61946667,17.5102 7.61546667,17.5735333 C7.61013333,17.6668667 7.61013333,17.7608667 7.61546667,17.8542 C7.61946667,17.9195333 7.5968,17.9342 7.53413333,17.9342 C6.98146667,17.9315333 6.42813333,17.9348667 5.8748,17.9308667 C5.7908,17.9302 5.76146667,17.9475333 5.76746667,18.0362 C5.77613333,18.1575333 5.77213333,18.2802 5.76813333,18.4015333 C5.76613333,18.4622 5.7868,18.4788667 5.84613333,18.4782 C6.15213333,18.4755333 6.45746667,18.4795333 6.76413333,18.4755333 C6.8288,18.4748667 6.8468,18.4922 6.84346667,18.5555333 C6.83746667,18.6488667 6.83746667,18.7428667 6.84346667,18.8362 C6.8468,18.8982 6.82346667,18.9095333 6.76613333,18.9088667 C6.46013333,18.9062 6.15413333,18.9095333 5.84746667,18.9062 C5.78613333,18.9055333 5.76546667,18.9188667 5.76746667,18.9848667 C5.77346667,19.1375333 5.77346667,19.2908667 5.76746667,19.4442 C5.7648,19.5115333 5.78946667,19.5215333 5.8488,19.5215333 C6.4128,19.5195333 6.97746667,19.5215333 7.54146667,19.5188667 C7.6128,19.5182 7.6428,19.5288667 7.63613333,19.6088667 C7.62813333,19.7128667 7.6308,19.8188667 7.63546667,19.9235333 C7.6388,19.9835333 7.61413333,19.9928667 7.56213333,19.9928667 C6.8048,19.9908667 6.04746667,19.9908667 5.2908,19.9928667 C5.23346667,19.9928667 5.22013333,19.9742 5.2208,19.9195333 C5.2228,19.5282 5.22146667,19.1368667 5.22146667,18.7455333"/>
    <path fill="#21396E" d="M25.7019333 18.5860667C25.9032667 18.5860667 26.1046 18.5874 26.3052667 18.5860667 26.4326 18.5840667 26.4859333 18.5294 26.4892667 18.4034 26.4912667 18.3207333 26.4899333 18.2387333 26.4892667 18.1560667 26.4892667 17.9914 26.4426 17.9394 26.2792667 17.9387333 25.8852667 17.9354 25.4919333 17.9374 25.0986 17.9347333 25.0492667 17.9347333 25.0366 17.9500667 25.0372667 17.9974 25.0392667 18.1734 25.0406 18.3494 25.0366 18.5247333 25.0352667 18.5827333 25.0599333 18.5874 25.1066 18.5867333 25.3046 18.5854 25.5032667 18.5860667 25.7019333 18.5860667M24.4939333 18.7474C24.4939333 18.3594 24.4952667 17.9707333 24.4919333 17.5827333 24.4912667 17.5147333 24.5112667 17.4987333 24.5772667 17.4994 25.2199333 17.5014 25.8632667 17.5000667 26.5066 17.5014 26.5659333 17.5014 26.6259333 17.5067333 26.6839333 17.5174 26.8906 17.5560667 27.0119333 17.6954 27.0159333 17.9074 27.0199333 18.1427333 27.0199333 18.3780667 27.0159333 18.6134 27.0126 18.8367333 26.8852667 18.9754 26.6626 19.0107333 26.6012667 19.0207333 26.5399333 19.0254 26.4772667 19.0254 26.0232667 19.0247333 25.5706 19.0260667 25.1172667 19.0234 25.0552667 19.0234 25.0352667 19.0360667 25.0359333 19.1014 25.0406 19.3707333 25.0352667 19.6400667 25.0399333 19.9094 25.0412667 19.9787333 25.0186 19.9954 24.9532667 19.9927333 24.8232667 19.9880667 24.6926 19.9887333 24.5626 19.9927333 24.5032667 19.9954 24.4926 19.9734 24.4926 19.9200667 24.4939333 19.5294 24.4939333 19.1380667 24.4939333 18.7474M16.3478 17.9952C16.1724667 18.3378667 16.0064667 18.6605333 15.8378 18.9892L16.8398 18.9892C16.6771333 18.6605333 16.5178 18.3378667 16.3478 17.9952M17.9611333 19.9918667C17.7678 19.9918667 17.5811333 19.9898667 17.3944667 19.9925333 17.3498 19.9932 17.3364667 19.9665333 17.3218 19.9358667 17.2471333 19.7898667 17.1711333 19.6445333 17.0984667 19.4972 17.0798 19.4592 17.0558 19.4458667 17.0138 19.4458667 16.5624667 19.4478667 16.1118 19.4478667 15.6618 19.4458667 15.6131333 19.4452 15.5911333 19.4632 15.5718 19.5038667 15.5038 19.6465333 15.4311333 19.7872 15.3631333 19.9305333 15.3424667 19.9738667 15.3184667 19.9938667 15.2678 19.9932 15.1098 19.9892 14.9518 19.9918667 14.7804667 19.9918667 14.8838 19.7965333 14.9798 19.6118667 15.0778 19.4278667 15.4064667 18.8085333 15.7358 18.1898667 16.0624667 17.5698667 16.0898 17.5192 16.1198 17.4965333 16.1804667 17.4992 16.3104667 17.5045333 16.4411333 17.5012 16.5711333 17.4998667 16.6084667 17.4992 16.6338 17.5058667 16.6538 17.5425333 17.0858 18.3498667 17.5198 19.1565333 17.9531333 19.9632 17.9558 19.9678667 17.9558 19.9732 17.9611333 19.9918667"/>
    <g transform="translate(0 17.333)">
      <mask id="vietnam-post-f" fill="#fff">
        <use xlink:href="#vietnam-post-e"/>
      </mask>
      <path fill="#21396E" d="M1.5548,1.9464 C1.75613333,1.5444 1.9568,1.14306667 2.1568,0.741733333 C2.2428,0.5704 2.32946667,0.3984 2.41413333,0.225733333 C2.4328,0.1864 2.45413333,0.165066667 2.5028,0.165733333 C2.66146667,0.169066667 2.82013333,0.167733333 2.9928,0.167733333 C2.92546667,0.301733333 2.8608,0.429733333 2.79546667,0.5564 C2.4468,1.23173333 2.0968,1.90706667 1.75013333,2.58373333 C1.72146667,2.6384 1.6928,2.66506667 1.62813333,2.65973333 C1.54946667,2.65373333 1.46946667,2.65506667 1.39013333,2.65906667 C1.34413333,2.66106667 1.32013333,2.64306667 1.2988,2.60306667 C0.873466667,1.8144 0.446133333,1.0264 0.0181333333,0.239066667 C-0.0145333333,0.179066667 -0.0052,0.1644 0.0628,0.1664 C0.221466667,0.169733333 0.380133333,0.169733333 0.5388,0.165733333 C0.592133333,0.1644 0.618133333,0.183733333 0.642133333,0.229733333 C0.9288,0.779066667 1.21746667,1.3264 1.50546667,1.8744 C1.51813333,1.89906667 1.52613333,1.92706667 1.5548,1.9464" mask="url(#vietnam-post-f)"/>
    </g>
    <path fill="#243B70" d="M9.39986667,17.5004667 C9.81986667,17.5004667 10.2392,17.5018 10.6592,17.4991333 C10.7265333,17.4984667 10.7552,17.5111333 10.7498667,17.5858 C10.7432,17.6844667 10.7452,17.7844667 10.7492,17.8831333 C10.7518667,17.9398 10.7338667,17.9551333 10.6785333,17.9544667 C10.3692,17.9518 10.0598667,17.9551333 9.7512,17.9518 C9.68786667,17.9511333 9.6712,17.9671333 9.6712,18.0311333 C9.67386667,18.6544667 9.67186667,19.2784667 9.67453333,19.9024667 C9.67453333,19.9704667 9.66053333,19.9971333 9.58653333,19.9931333 C9.45986667,19.9871333 9.3312,19.9871333 9.20453333,19.9931333 C9.1352,19.9964667 9.11986667,19.9724667 9.11986667,19.9071333 C9.12253333,19.2864667 9.11986667,18.6658 9.1232,18.0444667 C9.12386667,17.9711333 9.10786667,17.9498 9.0312,17.9511333 C8.7312,17.9564667 8.43053333,17.9511333 8.12986667,17.9544667 C8.06986667,17.9551333 8.05253333,17.9378 8.05453333,17.8791333 C8.05986667,17.7771333 8.05986667,17.6744667 8.05453333,17.5731333 C8.05186667,17.5104667 8.07586667,17.4991333 8.1332,17.4991333 C8.5552,17.5011333 8.9772,17.5004667 9.39986667,17.5004667"/>
    <g transform="translate(34.667 17.333)">
      <mask id="vietnam-post-h" fill="#fff">
        <use xlink:href="#vietnam-post-g"/>
      </mask>
      <path fill="#21396E" d="M1.47086667,0.167133333 C1.8902,0.167133333 2.3102,0.169133333 2.72953333,0.1658 C2.8022,0.165133333 2.82086667,0.1858 2.81686667,0.255133333 C2.8102,0.3458 2.8102,0.437133333 2.81686667,0.5278 C2.82086667,0.599133333 2.80486667,0.6238 2.7262,0.6218 C2.42286667,0.616466667 2.11953333,0.6218 1.8162,0.618466667 C1.75553333,0.6178 1.74086667,0.6338 1.74153333,0.693133333 C1.74353333,1.31713333 1.74086667,1.94113333 1.74486667,2.56446667 C1.74553333,2.6458 1.72086667,2.66313333 1.6462,2.6598 C1.52153333,2.6538 1.39686667,2.65446667 1.27153333,2.6598 C1.20686667,2.66246667 1.19153333,2.64313333 1.19153333,2.5798 C1.1942,1.95846667 1.1922,1.3378 1.19486667,0.716466667 C1.19553333,0.642466667 1.18086667,0.6158 1.09953333,0.6178 C0.8022,0.623133333 0.504866667,0.617133333 0.206866667,0.6218 C0.136866667,0.622466667 0.121533333,0.5998 0.124866667,0.5358 C0.1302,0.443133333 0.130866667,0.348466667 0.1242,0.255133333 C0.1202,0.186466667 0.138866667,0.165133333 0.211533333,0.1658 C0.630866667,0.169133333 1.05086667,0.167133333 1.47086667,0.167133333" mask="url(#vietnam-post-h)"/>
    </g>
    <path fill="#20396E" d="M3.67333333,18.7465333 C3.67333333,18.3585333 3.67533333,17.9705333 3.67133333,17.5825333 C3.67066667,17.5132 3.692,17.4965333 3.75733333,17.4992 C3.88733333,17.5038667 4.018,17.5025333 4.148,17.4998667 C4.2,17.4985333 4.222,17.5092 4.222,17.5685333 C4.22,18.3565333 4.22,19.1438667 4.22133333,19.9305333 C4.222,19.9845333 4.204,19.9972 4.15333333,19.9958667 C4.018,19.9932 3.88133333,19.9912 3.74533333,19.9965333 C3.68333333,19.9985333 3.672,19.9758667 3.672,19.9192 C3.67466667,19.5278667 3.67333333,19.1372 3.67333333,18.7465333"/>
  </g>
</svg>
